<mxfile host="app.diagrams.net" modified="2023-10-19T15:30:07.030Z" agent="Mozilla/5.0 (X11; Linux x86_64) AppleWebKit/537.36 (KHTML, like Gecko) Chrome/118.0.0.0 Safari/537.36" version="22.0.5" etag="-id9hqDA5tpKPOl2OvMW" type="github">
  <diagram name="PÃ¡gina-1" id="V0H1Xstikf6ezSg5OVTq">
    <mxGraphModel>
      <root>
        <mxCell id="0" />
        <mxCell id="1" parent="0" />
      </root>
    </mxGraphModel>
  </diagram>
</mxfile>
